<svg xmlns="http://www.w3.org/2000/svg" width="18" height="18" viewBox="0 0 18 18" fill="none">
  <path d="M10.02 12.7499C9.91897 12.7495 9.81906 12.7287 9.72627 12.6888C9.63347 12.6488 9.54971 12.5905 9.48 12.5174L6.585 9.51739C6.44758 9.3772 6.37061 9.18871 6.37061 8.99239C6.37061 8.79608 6.44758 8.60759 6.585 8.46739L9.585 5.46739C9.65493 5.39747 9.73795 5.342 9.82931 5.30415C9.92068 5.26631 10.0186 5.24683 10.1175 5.24683C10.2164 5.24683 10.3143 5.26631 10.4057 5.30415C10.4971 5.342 10.5801 5.39747 10.65 5.46739C10.7199 5.53732 10.7754 5.62034 10.8132 5.71171C10.8511 5.80307 10.8706 5.901 10.8706 5.99989C10.8706 6.09879 10.8511 6.19672 10.8132 6.28808C10.7754 6.37945 10.7199 6.46247 10.65 6.53239L8.175 8.99989L10.56 11.4749C10.6997 11.6154 10.7781 11.8055 10.7781 12.0036C10.7781 12.2018 10.6997 12.3919 10.56 12.5324C10.489 12.6028 10.4047 12.6583 10.312 12.6957C10.2192 12.733 10.12 12.7515 10.02 12.7499Z" fill="#A074FF"/>
</svg>