<svg xmlns="http://www.w3.org/2000/svg" width="68" height="58" viewBox="0 0 68 58" fill="none">
<g clip-path="url(#clip0_139_353)">
<path d="M30.4999 6.85119L6.20991 0.398696C5.57043 0.245337 4.90611 0.240564 4.26464 0.38472C3.62318 0.528877 3.0205 0.818385 2.49991 1.23245C1.96941 1.66201 1.54181 2.21262 1.25042 2.84137C0.959022 3.47013 0.811693 4.16006 0.819905 4.85745V47.1249C0.820643 48.1305 1.14432 49.1073 1.73995 49.9014C2.33559 50.6955 3.16934 51.2618 4.10991 51.5112L30.4999 58.5799V6.85119Z" fill="#5D5FEF"/>
<path d="M63.7046 0.35567C64.3604 0.500328 64.975 0.800413 65.5 1.23238C66.034 1.64705 66.4694 2.18276 66.7727 2.7985C67.076 3.41425 67.2393 4.09371 67.25 4.78488V47.1249C67.2571 48.1366 66.937 49.1218 66.3408 49.9232C65.7445 50.7247 64.9064 51.2965 63.96 51.5474L37.5 58.5799V6.85113L61.72 0.398631C62.3695 0.225718 63.0487 0.211013 63.7046 0.35567Z" fill="#A074FF"/>
</g>
<defs>
<clipPath id="clip0_139_353">
<rect width="68" height="58" fill="white"/>
</clipPath>
</defs>
</svg>