<svg xmlns="http://www.w3.org/2000/svg" width="33" height="28" viewBox="0 0 33 28" fill="none">
<g clip-path="url(#clip0_25_823)">
<path d="M14.8015 3.30748L3.01366 0.19248C2.70333 0.118445 2.38093 0.116141 2.06964 0.185733C1.75834 0.255326 1.46586 0.395089 1.21322 0.59498C0.955771 0.802358 0.748261 1.06817 0.606849 1.3717C0.465436 1.67524 0.393939 2.00831 0.397924 2.34498V22.75C0.398282 23.2354 0.555359 23.707 0.844417 24.0903C1.13347 24.4737 1.53809 24.7471 1.99454 24.8675L14.8015 28.28V3.30748Z" fill="#5D5FEF"/>
<path d="M30.9154 0.171741C31.2337 0.241576 31.532 0.386444 31.7868 0.594981C32.0459 0.795164 32.2572 1.05378 32.4044 1.35104C32.5516 1.6483 32.6308 1.97631 32.636 2.30998V22.75C32.6395 23.2384 32.4841 23.714 32.1948 24.1009C31.9054 24.4878 31.4987 24.7639 31.0394 24.885L18.1985 28.28V3.30748L29.9523 0.192481C30.2675 0.109005 30.5972 0.101906 30.9154 0.171741Z" fill="#A074FF"/>
</g>
<defs>
<clipPath id="clip0_25_823">
<rect width="33" height="28" fill="white"/>
</clipPath>
</defs>
</svg>