<svg xmlns="http://www.w3.org/2000/svg" width="18" height="18" viewBox="0 0 18 18" fill="none">
<path d="M7.87502 12.7499C7.77631 12.7505 7.67846 12.7315 7.58709 12.6942C7.49571 12.6569 7.4126 12.6019 7.34252 12.5324C7.27222 12.4627 7.21642 12.3797 7.17835 12.2883C7.14027 12.1969 7.12067 12.0989 7.12067 11.9999C7.12067 11.9009 7.14027 11.8028 7.17835 11.7115C7.21642 11.6201 7.27222 11.5371 7.34252 11.4674L9.82502 8.99989L7.44002 6.51739C7.30033 6.37686 7.22192 6.18678 7.22192 5.98864C7.22192 5.7905 7.30033 5.60041 7.44002 5.45989C7.50974 5.38959 7.59269 5.33379 7.68408 5.29572C7.77548 5.25764 7.87351 5.23804 7.97252 5.23804C8.07152 5.23804 8.16955 5.25764 8.26095 5.29572C8.35234 5.33379 8.43529 5.38959 8.50502 5.45989L11.4 8.45989C11.5374 8.60008 11.6144 8.78857 11.6144 8.98489C11.6144 9.1812 11.5374 9.36969 11.4 9.50989L8.40002 12.5099C8.3327 12.5826 8.25164 12.6412 8.16153 12.6824C8.07142 12.7236 7.97404 12.7465 7.87502 12.7499Z" fill="#A074FF"/>
</svg>